<?xml version="1.0" encoding="utf-8"?>
<svg width="150" height="350" viewBox="0 0 150 350" fill="none" stroke="none" version="1.1" xmlns:xlink="http://www.w3.org/1999/xlink" xmlns="http://www.w3.org/2000/svg">
  <g style="fill:#C5CAE9;fill-rule:evenodd;mix-blend-mode:normal;">
    <path id="Shape" d="M0 50C0 22.3858 22.3858 0 50 0L100 0C127.614 0 150 22.3858 150 50L150 300C150 327.614 127.614 350 100 350L50 350C22.3858 350 0 327.614 0 300L0 50L0 50ZM50 50L50 300L100 300L100 50L50 50L50 50Z" />
    <path d="M50 0C22.3858 0 0 22.3858 0 50L0 300C0 327.614 22.3858 350 50 350L100 350C127.614 350 150 327.614 150 300L150 50C150 22.3858 127.614 0 100 0L50 0ZM1 300L1 50Q1 29.7037 15.3517 15.3518Q29.7031 1 50 1L100 1Q120.296 1.00006 134.648 15.3518Q149 29.7039 149 50L149 300Q149 320.296 134.648 334.648Q120.297 349 100 349L50 349Q29.7036 349 15.3517 334.648Q1 320.297 1 300ZM101 49L49 49L49 301L101 301L101 49ZM51 50L100 50L100 300L50 300L50 50L51 50Z" fill-rule="evenodd" style="fill:#3F51B5;fill-rule:evenodd;" />
  </g>
</svg>