<?xml version="1.0" encoding="utf-8"?>
<svg width="250" height="350" viewBox="0 0 250 350" fill="none" stroke="none" version="1.1" xmlns:xlink="http://www.w3.org/1999/xlink" xmlns="http://www.w3.org/2000/svg">
  <g style="fill:#C5CAE9;fill-rule:evenodd;mix-blend-mode:normal;">
    <path id="Path" d="M50 300L50 0L0 0L0 300C0 327.614 22.3857 350 50 350L100 350C109.107 350 117.646 347.565 125 343.311C132.354 347.565 140.893 350 150 350L200 350C227.614 350 250 327.614 250 300L250 0L200 0L200 300L150 300L150 150L100 150L100 300L50 300L50 300Z" />
    <path d="M50 300L100 300L100 150L150 150L150 300L200 300L200 0L250 0L250 300C250 327.614 227.614 350 200 350L150 350C140.893 350 132.354 347.565 125 343.311C117.646 347.565 109.107 350 100 350L50 350C22.3857 350 0 327.614 0 300L0 0L50 0L50 300ZM49 1L1 1L1 300Q1 320.296 15.3517 334.648Q29.7041 349 50 349L100 349Q113.168 349 124.499 342.445L125 342.156L125.501 342.445Q136.831 349 150 349L200 349Q220.296 349 234.648 334.648Q249 320.297 249 300L249 1L201 1L201 301L149 301L149 151L101 151L101 301L49 301L49 1Z" fill-rule="evenodd" style="fill:#3F51B5;fill-rule:evenodd;" />
  </g>
</svg>