<?xml version="1.0" encoding="utf-8"?>
<svg width="200" height="186.414" viewBox="0 0 200 186.414" fill="none" stroke="none" version="1.1" xmlns:xlink="http://www.w3.org/1999/xlink" xmlns="http://www.w3.org/2000/svg">
  <g style="fill:#C5CAE9;fill-rule:evenodd;mix-blend-mode:normal;" transform="translate(0 -0)">
    <path id="Vector" d="M150 6.70709C133.975 -2.54474 114.958 -1.91815 100 6.69745C85.0417 -1.91815 66.0247 -2.54474 50 6.70709C33.8528 16.0297 24.8726 32.9991 24.9929 50.4003C10.0518 59.0466 0 75.2029 0 93.7071C0 112.212 10.0532 128.37 24.9961 137.016C25.2202 154.064 34.1628 170.563 50 179.707C66.0244 188.959 85.0415 188.332 99.9998 179.717C114.958 188.332 133.975 188.959 150 179.707C165.837 170.563 174.78 154.064 175.004 137.016C189.947 128.37 200 112.213 200 93.7071C200 75.2029 189.948 59.0466 175.007 50.4003C175.127 32.9991 166.147 16.0297 150 6.70709L150 6.70709ZM100 35.5746L50 64.4421L50 121.972L100 150.84L150 121.972L150 64.4421L100 35.5746L100 35.5746Z" />
    <path d="M175.007 50.4003C175.127 32.9991 166.147 16.0297 150 6.70709C133.975 -2.54474 114.958 -1.91815 100 6.69745C85.0417 -1.91815 66.0247 -2.54474 50 6.70709C33.8528 16.0297 24.8726 32.9991 24.9929 50.4003C10.0518 59.0466 0 75.2029 0 93.7071C0 112.212 10.0532 128.37 24.9961 137.016C25.2202 154.064 34.1628 170.563 50 179.707C66.0244 188.959 85.0415 188.332 99.9998 179.717C114.958 188.332 133.975 188.959 150 179.707C165.837 170.563 174.78 154.064 175.004 137.016C189.947 128.37 200 112.213 200 93.7071C200 75.2029 189.948 59.0466 175.007 50.4003ZM124.609 1.00195Q137.912 0.883362 149.5 7.57312Q161.178 14.3155 167.731 26.013Q174.097 37.3746 174.007 50.3934L174.003 50.9747L174.506 51.2659Q185.686 57.7349 192.245 68.8647Q199 80.3262 199 93.7071Q199 107.088 192.244 118.551Q185.684 129.681 174.503 136.15L174.011 136.435L174.004 137.003Q173.836 149.76 167.489 160.828Q160.95 172.23 149.5 178.841Q137.913 185.531 124.609 185.412Q111.692 185.297 100.499 178.85L99.9998 178.563L99.5006 178.85Q88.3071 185.297 75.3907 185.412Q62.0869 185.531 50.5 178.841Q39.0493 172.23 32.5106 160.828Q26.1641 149.761 25.996 137.003L25.9886 136.435L25.4969 136.15Q14.3159 129.681 7.75595 118.551Q1 107.088 1 93.7071Q1 80.3267 7.75504 68.8647Q14.314 57.7349 25.4938 51.2659L25.9969 50.9747L25.9929 50.3934Q25.9028 37.3755 32.2685 26.013Q38.8223 14.315 50.5 7.57312Q62.0879 0.882874 75.391 1.00195Q88.3086 1.11725 99.5009 7.564L100 7.85147L100.499 7.564Q111.691 1.11725 124.609 1.00195ZM151 63.8647L100 34.42L99.5 34.7086L49 63.8647L49 122.549L100 151.994L151 122.549L151 63.8647ZM100 35.5746L150 64.4421L150 121.972L100 150.84L50 121.972L50 64.4421L100 35.5746Z" fill-rule="evenodd" style="fill:#3F51B5;fill-rule:evenodd;" />
  </g>
</svg>