<?xml version="1.0" encoding="utf-8"?>
<svg width="159.922" height="156.607" viewBox="0 0 159.922 156.607" fill="none" stroke="none" version="1.1" xmlns:xlink="http://www.w3.org/1999/xlink" xmlns="http://www.w3.org/2000/svg">
  <g style="fill:#C5CAE9;fill-rule:evenodd;mix-blend-mode:normal;">
    <path id="Vector" d="M104.258 0C81.3298 0 62.0066 15.4324 56.1082 36.4764L24.2969 18.1102C12.833 37.9663 16.5361 62.4171 31.8115 78.0472L0 96.4136C11.4639 116.27 34.4907 125.288 55.6646 119.874L55.6646 156.607C78.5925 156.607 97.916 141.174 103.814 120.13L135.626 138.497C147.09 118.64 143.386 94.1896 128.111 78.5594L159.922 60.1932C148.458 40.3372 125.432 31.3188 104.258 36.7327L104.258 0L104.258 0Z" />
    <path d="M104.258 35.7011L104.258 0C103.924 0 103.59 0.00326538 103.258 0.00979614C81.1283 0.443909 62.523 15.255 56.3963 35.4881C56.297 35.8161 56.2009 36.1456 56.1082 36.4764L55.2148 35.9607L25.1629 18.6102L24.2969 18.1102C24.1298 18.3996 23.966 18.6899 23.8054 18.9812C13.1167 38.3628 16.6407 61.8812 31.0997 77.3036C31.3341 77.5536 31.5714 77.8015 31.8115 78.0472L30.9182 78.563L0.866028 95.9136L0 96.4136C0.167053 96.7029 0.336548 96.99 0.508484 97.2747C11.9491 116.222 34.0789 124.93 54.6646 120.119C54.9983 120.041 55.3317 119.959 55.6646 119.874L55.6646 156.607C55.9987 156.607 56.332 156.604 56.6646 156.597C78.7941 156.163 97.3996 141.352 103.526 121.119C103.625 120.791 103.721 120.461 103.814 120.13L104.708 120.646L134.76 137.997L135.626 138.497C135.793 138.207 135.957 137.917 136.117 137.626C146.806 118.244 143.282 94.7255 128.823 79.3031C128.588 79.0531 128.351 78.8052 128.111 78.5594L129.004 78.0437L159.056 60.6932L159.922 60.1932C159.755 59.9039 159.586 59.6169 159.414 59.3321C147.973 40.3846 125.844 31.6774 105.258 36.488C104.924 36.566 104.591 36.6476 104.258 36.7327L104.258 35.7011ZM158.548 59.8318Q150.258 46.0645 135.35 39.9111Q120.246 33.6768 104.506 37.7015L103.258 38.0205L103.258 1.00919Q87.1894 1.30505 74.4066 11.1393Q61.4561 21.1025 57.071 36.7463L56.7234 37.9864L24.6708 19.4808Q16.8931 33.5442 19.0182 49.5317Q21.1719 65.73 32.5267 77.3483L33.4268 78.2693L1.37396 96.775Q9.66455 110.542 24.5726 116.696Q39.6768 122.93 55.4168 118.905L56.6646 118.586L56.6646 155.598Q72.7334 155.302 85.5158 145.468Q98.4658 135.504 102.851 119.86L103.199 118.62L135.252 137.126Q143.03 123.062 140.904 107.075Q138.751 90.877 127.396 79.2584L126.496 78.3373L158.548 59.8318Z" fill-rule="evenodd" style="fill:#3F51B5;fill-rule:evenodd;" />
  </g>
</svg>