<?xml version="1.0" encoding="utf-8"?>
<svg width="145.491" height="163.382" viewBox="0 0 145.491 163.382" fill="none" stroke="none" version="1.1" xmlns:xlink="http://www.w3.org/1999/xlink" xmlns="http://www.w3.org/2000/svg">
  <g style="fill:#C5CAE9;fill-rule:evenodd;mix-blend-mode:normal;">
    <path id="Vector" d="M145.491 69.0736L123.196 69.0736L141.493 37.3831L98.1914 12.3831L87.0439 31.691L68.7471 0L25.4458 25L36.5933 44.308L0 44.308L0 94.308L22.2944 94.308L3.9978 125.999L47.2991 150.999L58.4465 131.69L76.7434 163.381L120.045 138.381L108.897 119.074L145.491 119.074L145.491 69.0736L145.491 69.0736Z" />
    <path d="M110.052 119.074L145.491 119.074L145.491 69.0736L123.196 69.0736L123.773 68.0736L140.993 38.2491L141.493 37.3831L140.627 36.8831L99.0574 12.8831L98.1914 12.3831L97.6914 13.2491L87.6213 30.691L87.0439 31.691L86.4666 30.691L69.2471 0.866028L68.7471 0L67.881 0.5L26.3118 24.5L25.4458 25L25.9458 25.866L36.0159 43.308L36.5933 44.308L0 44.308L0 94.308L22.2944 94.308L21.7171 95.308L4.4978 125.133L3.9978 125.999L4.86383 126.499L46.433 150.499L47.2991 150.999L47.7991 150.132L57.8692 132.69L58.4465 131.69L59.0239 132.69L76.2434 162.515L76.7434 163.381L77.6094 162.881L119.179 138.881L120.045 138.381L119.545 137.515L109.475 120.074L108.897 119.074L110.052 119.074ZM118.679 138.015L107.165 118.074L144.491 118.074L144.491 70.0736L121.464 70.0736L140.127 37.7491L98.5574 13.7491L87.0439 33.691L68.381 1.36603L26.8118 25.366L38.3253 45.308L1 45.308L1 93.308L24.0265 93.308L5.36383 125.633L46.933 149.632L58.4465 129.69L77.1094 162.015L118.679 138.015Z" fill-rule="evenodd" style="fill:#3F51B5;fill-rule:evenodd;" />
  </g>
</svg>